<svg id="レイヤー_1" data-name="レイヤー 1" xmlns="http://www.w3.org/2000/svg" viewBox="0 0 946.03 341.17"><defs><style>.cls-1{fill:#fff;stroke:#000;stroke-miterlimit:10;stroke-width:3px;}.cls-2{fill:red;}</style></defs><circle class="cls-1" cx="552.19" cy="140.48" r="138.98"/><path d="M6856.32,7133.56v82.5h108.6v19.2h-108.6v89.11h-22.2v-210h144v19.2Z" transform="translate(-6754.34 -7057.74)"/><path d="M7155.72,7268.26h-117l-25.2,56.11h-23.1l96-210h21.9l96,210h-23.4Zm-8.1-18-50.4-112.8-50.4,112.8Z" transform="translate(-6754.34 -7057.74)"/><path class="cls-2" d="M7410.72,7112.36l-93,210h-21.9l-93-210h24l80.41,182.4,81-182.4Z" transform="translate(-6754.34 -7057.74)"/><path d="M7597,7305.17v19.2H7448.51v-210h144v19.2H7470.71v74.7h108.61v18.9H7470.71v78Z" transform="translate(-6754.34 -7057.74)"/><path d="M6758.94,7361.5v11.22h16.15v4h-16.15v13h-4.6v-32.2h22.73v4Z" transform="translate(-6754.34 -7057.74)"/><path d="M6804.07,7381.65H6787l-3.55,8.05h-4.74l14.59-32.2h4.55l14.63,32.2h-4.83Zm-1.61-3.68-6.95-15.78-6.94,15.78Z" transform="translate(-6754.34 -7057.74)"/><path d="M6839.72,7375.67v14h-4.42v-13.53c0-4.78-2.39-7.13-6.58-7.13-4.69,0-7.72,2.81-7.72,8.1v12.56h-4.42v-24.38h4.23V7369c1.8-2.49,4.92-3.91,8.79-3.91C6835.53,7365.09,6839.72,7368.49,6839.72,7375.67Z" transform="translate(-6754.34 -7057.74)"/><path d="M6870.91,7355.56v34.14h-4.23v-3.86a10.31,10.31,0,0,1-8.7,4.14c-7.13,0-12.33-5-12.33-12.47s5.2-12.42,12.33-12.42a10.37,10.37,0,0,1,8.51,3.91v-13.44Zm-4.37,21.95c0-5.2-3.54-8.56-8.19-8.56s-8.24,3.36-8.24,8.56,3.55,8.6,8.24,8.6S6866.54,7382.71,6866.54,7377.51Z" transform="translate(-6754.34 -7057.74)"/><path d="M6877,7377.51c0-7.27,5.39-12.42,12.7-12.42s12.65,5.15,12.65,12.42S6897,7390,6889.72,7390,6877,7384.78,6877,7377.51Zm20.89,0c0-5.2-3.5-8.56-8.19-8.56s-8.24,3.36-8.24,8.56,3.55,8.6,8.24,8.6S6897.91,7382.71,6897.91,7377.51Z" transform="translate(-6754.34 -7057.74)"/><path d="M6949,7375.67v14h-4.42v-13.53c0-4.78-2.3-7.13-6.3-7.13-4.41,0-7.31,2.81-7.31,8.1v12.56h-4.42v-13.53c0-4.78-2.3-7.13-6.3-7.13-4.42,0-7.32,2.81-7.32,8.1v12.56h-4.41v-24.38h4.23V7369c1.75-2.48,4.74-3.86,8.42-3.86s6.85,1.47,8.46,4.51c1.84-2.76,5.25-4.51,9.39-4.51C6944.92,7365.09,6949,7368.49,6949,7375.67Z" transform="translate(-6754.34 -7057.74)"/><path d="M6994.74,7377.51c0,7.5-5.2,12.47-12.33,12.47a10.42,10.42,0,0,1-8.51-4v12.6h-4.42v-33.3h4.23v3.86a10.4,10.4,0,0,1,8.7-4.09C6989.54,7365.09,6994.74,7370.06,6994.74,7377.51Zm-4.46,0c0-5.15-3.55-8.56-8.24-8.56s-8.19,3.41-8.19,8.56,3.55,8.6,8.19,8.6S6990.28,7382.71,6990.28,7377.51Z" transform="translate(-6754.34 -7057.74)"/><path d="M7000.85,7355.56h4.42v34.14h-4.42Z" transform="translate(-6754.34 -7057.74)"/><path d="M7033,7375v14.72h-4.19v-3.22c-1.47,2.21-4.18,3.5-8,3.5-5.52,0-9-2.95-9-7.18,0-3.91,2.53-7.13,9.8-7.13h7v-.88c0-3.72-2.16-5.88-6.53-5.88a12.34,12.34,0,0,0-7.73,2.62l-1.84-3.31a16.22,16.22,0,0,1,10.08-3.13C7029.24,7365.09,7033,7368.31,7033,7375Zm-4.42,7.27v-3.41h-6.81c-4.37,0-5.61,1.7-5.61,3.78,0,2.43,2,3.95,5.38,3.95S7027.49,7385.05,7028.59,7382.25Z" transform="translate(-6754.34 -7057.74)"/><path d="M7054.9,7388.27a8.31,8.31,0,0,1-5.33,1.71c-4.92,0-7.73-2.72-7.73-7.64V7369h-4.14v-3.63h4.14V7360h4.42v5.34h7V7369h-7v13.21c0,2.62,1.38,4.09,3.81,4.09a5.53,5.53,0,0,0,3.45-1.15Z" transform="translate(-6754.34 -7057.74)"/><path d="M7065.21,7363.2v2.12h7.08V7369h-7v20.75h-4.42V7369h-4.14v-3.63h4.14v-2.16c0-4.74,2.86-7.87,8.05-7.87a8.27,8.27,0,0,1,5,1.42l-1.33,3.36a5.73,5.73,0,0,0-3.41-1.15C7066.54,7358.92,7065.21,7360.4,7065.21,7363.2Z" transform="translate(-6754.34 -7057.74)"/><path d="M7074.22,7377.51c0-7.27,5.38-12.42,12.7-12.42s12.65,5.15,12.65,12.42-5.34,12.47-12.65,12.47S7074.22,7384.78,7074.22,7377.51Zm20.89,0c0-5.2-3.5-8.56-8.19-8.56s-8.24,3.36-8.24,8.56,3.55,8.6,8.24,8.6S7095.11,7382.71,7095.11,7377.51Z" transform="translate(-6754.34 -7057.74)"/><path d="M7118.8,7365.09v4.28a7.18,7.18,0,0,0-1-.05c-4.74,0-7.69,2.9-7.69,8.23v12.15h-4.41v-24.38h4.23v4.09C7111.48,7366.56,7114.52,7365.09,7118.8,7365.09Z" transform="translate(-6754.34 -7057.74)"/><path d="M7165,7375.67v14h-4.42v-13.53c0-4.78-2.3-7.13-6.3-7.13-4.42,0-7.31,2.81-7.31,8.1v12.56h-4.42v-13.53c0-4.78-2.3-7.13-6.3-7.13-4.42,0-7.32,2.81-7.32,8.1v12.56h-4.41v-24.38h4.23V7369c1.75-2.48,4.74-3.86,8.42-3.86s6.85,1.47,8.46,4.51c1.84-2.76,5.25-4.51,9.39-4.51C7161,7365.09,7165,7368.49,7165,7375.67Z" transform="translate(-6754.34 -7057.74)"/><path d="M7190.51,7363.2v2.12h7.08V7369h-7v20.75h-4.41V7369H7182v-3.63h4.15v-2.16c0-4.74,2.85-7.87,8.05-7.87a8.31,8.31,0,0,1,5,1.42l-1.34,3.36a5.73,5.73,0,0,0-3.4-1.15C7191.84,7358.92,7190.51,7360.4,7190.51,7363.2Z" transform="translate(-6754.34 -7057.74)"/><path d="M7199.52,7377.51c0-7.27,5.39-12.42,12.7-12.42s12.65,5.15,12.65,12.42-5.33,12.47-12.65,12.47S7199.52,7384.78,7199.52,7377.51Zm20.89,0c0-5.2-3.49-8.56-8.19-8.56s-8.23,3.36-8.23,8.56,3.54,8.6,8.23,8.6S7220.41,7382.71,7220.41,7377.51Z" transform="translate(-6754.34 -7057.74)"/><path d="M7244.1,7365.09v4.28a7.18,7.18,0,0,0-1-.05c-4.74,0-7.68,2.9-7.68,8.23v12.15H7231v-24.38h4.23v4.09C7236.79,7366.56,7239.82,7365.09,7244.1,7365.09Z" transform="translate(-6754.34 -7057.74)"/><path d="M7290.84,7357.5l-14.13,32.2h-4.55L7258,7357.5h5l11.59,26.45,11.69-26.45Z" transform="translate(-6754.34 -7057.74)"/><path d="M7308.68,7388.27a8.31,8.31,0,0,1-5.33,1.71c-4.93,0-7.73-2.72-7.73-7.64V7369h-4.14v-3.63h4.14V7360H7300v5.34h7V7369h-7v13.21c0,2.62,1.38,4.09,3.81,4.09a5.53,5.53,0,0,0,3.45-1.15Z" transform="translate(-6754.34 -7057.74)"/><path d="M7336.74,7365.32v24.38h-4.18V7386a9.93,9.93,0,0,1-8.28,4c-6.31,0-10.49-3.45-10.49-10.63v-14h4.41v13.52c0,4.79,2.4,7.18,6.58,7.18,4.6,0,7.55-2.85,7.55-8.1v-12.6Z" transform="translate(-6754.34 -7057.74)"/><path d="M7370.42,7377.51c0,7.45-5.2,12.47-12.33,12.47a10.31,10.31,0,0,1-8.7-4.14v3.86h-4.23v-34.14h4.42V7369a10.37,10.37,0,0,1,8.51-3.91C7365.22,7365.09,7370.42,7370.06,7370.42,7377.51Zm-4.47,0c0-5.2-3.54-8.56-8.23-8.56s-8.19,3.36-8.19,8.56,3.54,8.6,8.19,8.6S7366,7382.71,7366,7377.51Z" transform="translate(-6754.34 -7057.74)"/><path d="M7398.48,7379h-19.79c.56,4.28,4,7.13,8.84,7.13a9.11,9.11,0,0,0,7-2.94L7397,7386c-2.21,2.58-5.56,4-9.61,4-7.87,0-13.11-5.2-13.11-12.47s5.2-12.42,12.23-12.42,12.06,5.06,12.06,12.56C7398.57,7378,7398.52,7378.57,7398.48,7379Zm-19.79-3.17h15.64a7.87,7.87,0,0,0-15.64,0Z" transform="translate(-6754.34 -7057.74)"/><path d="M7417.79,7365.09v4.28a7.11,7.11,0,0,0-1-.05c-4.74,0-7.68,2.9-7.68,8.23v12.15h-4.42v-24.38h4.24v4.09C7410.48,7366.56,7413.52,7365.09,7417.79,7365.09Z" transform="translate(-6754.34 -7057.74)"/><path d="M7459.93,7385.7v4h-23.37v-32.2h22.73v4h-18.13v9.89h16.15v3.91h-16.15v10.4Z" transform="translate(-6754.34 -7057.74)"/><path d="M7488.31,7365.32l-10.67,24.38h-4.51l-10.67-24.38h4.6l8.37,19.55,8.56-19.55Z" transform="translate(-6754.34 -7057.74)"/><path d="M7511.77,7375v14.72h-4.18v-3.22c-1.48,2.21-4.19,3.5-8,3.5-5.52,0-9-2.95-9-7.18,0-3.91,2.53-7.13,9.8-7.13h7v-.88c0-3.72-2.17-5.88-6.54-5.88a12.36,12.36,0,0,0-7.73,2.62l-1.84-3.31a16.24,16.24,0,0,1,10.08-3.13C7508,7365.09,7511.77,7368.31,7511.77,7375Zm-4.41,7.27v-3.41h-6.81c-4.37,0-5.61,1.7-5.61,3.78,0,2.43,2,3.95,5.38,3.95S7506.25,7385.05,7507.36,7382.25Z" transform="translate(-6754.34 -7057.74)"/><path d="M7543.1,7375.67v14h-4.42v-13.53c0-4.78-2.39-7.13-6.58-7.13-4.69,0-7.72,2.81-7.72,8.1v12.56H7520v-24.38h4.23V7369c1.8-2.49,4.92-3.91,8.79-3.91C7538.91,7365.09,7543.1,7368.49,7543.1,7375.67Z" transform="translate(-6754.34 -7057.74)"/><path d="M7574.61,7365.32v21.07c0,8.6-4.37,12.51-12.65,12.51-4.46,0-9-1.24-11.64-3.63l2.12-3.41a14.87,14.87,0,0,0,9.38,3.18c5.75,0,8.37-2.67,8.37-8.19v-1.93a11.14,11.14,0,0,1-8.78,3.77c-7,0-12.38-4.79-12.38-11.82s5.34-11.78,12.38-11.78a11.11,11.11,0,0,1,9,4v-3.77Zm-4.32,11.55c0-4.74-3.5-7.92-8.38-7.92s-8.42,3.18-8.42,7.92,3.5,7.95,8.42,7.95S7570.29,7381.56,7570.29,7376.87Z" transform="translate(-6754.34 -7057.74)"/><path d="M7605,7379h-19.78c.55,4.28,4,7.13,8.83,7.13a9.11,9.11,0,0,0,7-2.94l2.44,2.85c-2.21,2.58-5.57,4-9.62,4-7.87,0-13.11-5.2-13.11-12.47s5.2-12.42,12.24-12.42,12.05,5.06,12.05,12.56C7605.06,7378,7605,7378.57,7605,7379Zm-19.78-3.17h15.64a7.87,7.87,0,0,0-15.64,0Z" transform="translate(-6754.34 -7057.74)"/><path d="M7611.18,7355.56h4.41v34.14h-4.41Z" transform="translate(-6754.34 -7057.74)"/><path d="M7623.23,7357.77a2.91,2.91,0,0,1,3-2.9,2.88,2.88,0,1,1-3,2.9Zm.78,7.55h4.42v24.38H7624Z" transform="translate(-6754.34 -7057.74)"/><path d="M7633.76,7387.12l1.84-3.49a15.71,15.71,0,0,0,8.56,2.53c4.09,0,5.8-1.24,5.8-3.31,0-5.48-15.42-.74-15.42-10.45,0-4.37,3.92-7.31,10.17-7.31a17.74,17.74,0,0,1,8.88,2.21l-1.89,3.49a12.74,12.74,0,0,0-7-1.93c-3.87,0-5.75,1.43-5.75,3.36,0,5.75,15.45,1.06,15.45,10.53,0,4.42-4.05,7.23-10.53,7.23C7639.79,7390,7635.79,7388.73,7633.76,7387.12Z" transform="translate(-6754.34 -7057.74)"/><path d="M7700.38,7375.67v14H7696v-13.53c0-4.78-2.3-7.13-6.3-7.13-4.42,0-7.32,2.81-7.32,8.1v12.56h-4.42v-13.53c0-4.78-2.3-7.13-6.3-7.13-4.41,0-7.31,2.81-7.31,8.1v12.56h-4.42v-24.38h4.23V7369c1.75-2.48,4.74-3.86,8.42-3.86s6.86,1.47,8.47,4.51c1.84-2.76,5.24-4.51,9.38-4.51C7696.33,7365.09,7700.38,7368.49,7700.38,7375.67Z" transform="translate(-6754.34 -7057.74)"/></svg>